<mxfile host="app.diagrams.net" agent="Mozilla/5.0 (Windows NT 10.0; Win64; x64) AppleWebKit/537.36 (KHTML, like Gecko) Chrome/131.0.0.0 Safari/537.36 Edg/131.0.0.0" version="25.0.1">
  <diagram name="第 1 页" id="XnAFfEQe_JS6yTiI5vxg">
    <mxGraphModel dx="1213" dy="661" grid="1" gridSize="10" guides="1" tooltips="1" connect="1" arrows="1" fold="1" page="1" pageScale="1" pageWidth="827" pageHeight="1169" math="0" shadow="0">
      <root>
        <mxCell id="0" />
        <mxCell id="1" parent="0" />
        <mxCell id="AY-kDnRfXNiPwfMlP3Fq-6" value="" style="edgeStyle=orthogonalEdgeStyle;rounded=0;orthogonalLoop=1;jettySize=auto;html=1;" edge="1" parent="1" source="AY-kDnRfXNiPwfMlP3Fq-1" target="AY-kDnRfXNiPwfMlP3Fq-2">
          <mxGeometry relative="1" as="geometry" />
        </mxCell>
        <mxCell id="AY-kDnRfXNiPwfMlP3Fq-1" value="开始" style="rounded=0;whiteSpace=wrap;html=1;fillColor=#dae8fc;strokeColor=#6c8ebf;" vertex="1" parent="1">
          <mxGeometry x="40" y="30" width="90" height="40" as="geometry" />
        </mxCell>
        <mxCell id="AY-kDnRfXNiPwfMlP3Fq-7" value="" style="edgeStyle=orthogonalEdgeStyle;rounded=0;orthogonalLoop=1;jettySize=auto;html=1;" edge="1" parent="1" source="AY-kDnRfXNiPwfMlP3Fq-2" target="AY-kDnRfXNiPwfMlP3Fq-3">
          <mxGeometry relative="1" as="geometry" />
        </mxCell>
        <mxCell id="AY-kDnRfXNiPwfMlP3Fq-2" value="刷新页面" style="rounded=0;whiteSpace=wrap;html=1;fillColor=#dae8fc;strokeColor=#6c8ebf;" vertex="1" parent="1">
          <mxGeometry x="160" y="30" width="100" height="40" as="geometry" />
        </mxCell>
        <mxCell id="AY-kDnRfXNiPwfMlP3Fq-8" value="" style="edgeStyle=orthogonalEdgeStyle;rounded=0;orthogonalLoop=1;jettySize=auto;html=1;" edge="1" parent="1" source="AY-kDnRfXNiPwfMlP3Fq-3" target="AY-kDnRfXNiPwfMlP3Fq-4">
          <mxGeometry relative="1" as="geometry" />
        </mxCell>
        <mxCell id="AY-kDnRfXNiPwfMlP3Fq-3" value="从数据库中获取信息" style="rounded=0;whiteSpace=wrap;html=1;fillColor=#dae8fc;strokeColor=#6c8ebf;" vertex="1" parent="1">
          <mxGeometry x="294" y="30" width="116" height="40" as="geometry" />
        </mxCell>
        <mxCell id="AY-kDnRfXNiPwfMlP3Fq-9" value="" style="edgeStyle=orthogonalEdgeStyle;rounded=0;orthogonalLoop=1;jettySize=auto;html=1;" edge="1" parent="1" source="AY-kDnRfXNiPwfMlP3Fq-4" target="AY-kDnRfXNiPwfMlP3Fq-5">
          <mxGeometry relative="1" as="geometry" />
        </mxCell>
        <mxCell id="AY-kDnRfXNiPwfMlP3Fq-4" value="将信息映射到前端页面" style="rounded=0;whiteSpace=wrap;html=1;fillColor=#dae8fc;strokeColor=#6c8ebf;" vertex="1" parent="1">
          <mxGeometry x="450" y="30" width="130" height="40" as="geometry" />
        </mxCell>
        <mxCell id="AY-kDnRfXNiPwfMlP3Fq-11" value="" style="edgeStyle=orthogonalEdgeStyle;rounded=0;orthogonalLoop=1;jettySize=auto;html=1;" edge="1" parent="1" source="AY-kDnRfXNiPwfMlP3Fq-5" target="AY-kDnRfXNiPwfMlP3Fq-10">
          <mxGeometry relative="1" as="geometry" />
        </mxCell>
        <mxCell id="AY-kDnRfXNiPwfMlP3Fq-5" value="展示借阅信息" style="rounded=0;whiteSpace=wrap;html=1;fillColor=#dae8fc;strokeColor=#6c8ebf;" vertex="1" parent="1">
          <mxGeometry x="620" y="30" width="100" height="40" as="geometry" />
        </mxCell>
        <mxCell id="AY-kDnRfXNiPwfMlP3Fq-15" value="" style="edgeStyle=orthogonalEdgeStyle;rounded=0;orthogonalLoop=1;jettySize=auto;html=1;" edge="1" parent="1" source="AY-kDnRfXNiPwfMlP3Fq-10" target="AY-kDnRfXNiPwfMlP3Fq-12">
          <mxGeometry relative="1" as="geometry" />
        </mxCell>
        <mxCell id="AY-kDnRfXNiPwfMlP3Fq-20" value="Y" style="edgeLabel;html=1;align=center;verticalAlign=middle;resizable=0;points=[];" vertex="1" connectable="0" parent="AY-kDnRfXNiPwfMlP3Fq-15">
          <mxGeometry x="-0.6296" y="-2" relative="1" as="geometry">
            <mxPoint x="-2" y="-8" as="offset" />
          </mxGeometry>
        </mxCell>
        <mxCell id="AY-kDnRfXNiPwfMlP3Fq-23" value="" style="edgeStyle=orthogonalEdgeStyle;rounded=0;orthogonalLoop=1;jettySize=auto;html=1;entryX=0.5;entryY=0;entryDx=0;entryDy=0;" edge="1" parent="1" source="AY-kDnRfXNiPwfMlP3Fq-10" target="AY-kDnRfXNiPwfMlP3Fq-21">
          <mxGeometry relative="1" as="geometry" />
        </mxCell>
        <mxCell id="AY-kDnRfXNiPwfMlP3Fq-25" value="N" style="edgeLabel;html=1;align=center;verticalAlign=middle;resizable=0;points=[];" vertex="1" connectable="0" parent="AY-kDnRfXNiPwfMlP3Fq-23">
          <mxGeometry x="0.5333" y="2" relative="1" as="geometry">
            <mxPoint x="8" as="offset" />
          </mxGeometry>
        </mxCell>
        <mxCell id="AY-kDnRfXNiPwfMlP3Fq-10" value="添加借阅信息" style="rhombus;whiteSpace=wrap;html=1;fillColor=#dae8fc;strokeColor=#6c8ebf;" vertex="1" parent="1">
          <mxGeometry x="610" y="110" width="120" height="60" as="geometry" />
        </mxCell>
        <mxCell id="AY-kDnRfXNiPwfMlP3Fq-16" value="" style="edgeStyle=orthogonalEdgeStyle;rounded=0;orthogonalLoop=1;jettySize=auto;html=1;" edge="1" parent="1" source="AY-kDnRfXNiPwfMlP3Fq-12" target="AY-kDnRfXNiPwfMlP3Fq-13">
          <mxGeometry relative="1" as="geometry" />
        </mxCell>
        <mxCell id="AY-kDnRfXNiPwfMlP3Fq-12" value="加载新页面" style="rounded=0;whiteSpace=wrap;html=1;fillColor=#dae8fc;strokeColor=#6c8ebf;" vertex="1" parent="1">
          <mxGeometry x="445" y="120" width="130" height="40" as="geometry" />
        </mxCell>
        <mxCell id="AY-kDnRfXNiPwfMlP3Fq-17" value="" style="edgeStyle=orthogonalEdgeStyle;rounded=0;orthogonalLoop=1;jettySize=auto;html=1;" edge="1" parent="1" source="AY-kDnRfXNiPwfMlP3Fq-13" target="AY-kDnRfXNiPwfMlP3Fq-14">
          <mxGeometry relative="1" as="geometry" />
        </mxCell>
        <mxCell id="AY-kDnRfXNiPwfMlP3Fq-13" value="填写借阅信息" style="rounded=0;whiteSpace=wrap;html=1;fillColor=#dae8fc;strokeColor=#6c8ebf;" vertex="1" parent="1">
          <mxGeometry x="292" y="120" width="110" height="40" as="geometry" />
        </mxCell>
        <mxCell id="AY-kDnRfXNiPwfMlP3Fq-18" value="" style="edgeStyle=orthogonalEdgeStyle;rounded=0;orthogonalLoop=1;jettySize=auto;html=1;" edge="1" parent="1" source="AY-kDnRfXNiPwfMlP3Fq-14" target="AY-kDnRfXNiPwfMlP3Fq-2">
          <mxGeometry relative="1" as="geometry" />
        </mxCell>
        <mxCell id="AY-kDnRfXNiPwfMlP3Fq-14" value="提交并修改数据库" style="rounded=0;whiteSpace=wrap;html=1;fillColor=#dae8fc;strokeColor=#6c8ebf;" vertex="1" parent="1">
          <mxGeometry x="157.5" y="120" width="105" height="40" as="geometry" />
        </mxCell>
        <mxCell id="AY-kDnRfXNiPwfMlP3Fq-24" value="" style="edgeStyle=orthogonalEdgeStyle;rounded=0;orthogonalLoop=1;jettySize=auto;html=1;" edge="1" parent="1" source="AY-kDnRfXNiPwfMlP3Fq-21" target="AY-kDnRfXNiPwfMlP3Fq-22">
          <mxGeometry relative="1" as="geometry" />
        </mxCell>
        <mxCell id="AY-kDnRfXNiPwfMlP3Fq-26" value="N" style="edgeLabel;html=1;align=center;verticalAlign=middle;resizable=0;points=[];" vertex="1" connectable="0" parent="AY-kDnRfXNiPwfMlP3Fq-24">
          <mxGeometry x="-0.76" y="4" relative="1" as="geometry">
            <mxPoint x="6" y="4" as="offset" />
          </mxGeometry>
        </mxCell>
        <mxCell id="AY-kDnRfXNiPwfMlP3Fq-28" style="edgeStyle=orthogonalEdgeStyle;rounded=0;orthogonalLoop=1;jettySize=auto;html=1;exitX=0;exitY=0.5;exitDx=0;exitDy=0;entryX=1;entryY=0.5;entryDx=0;entryDy=0;" edge="1" parent="1" source="AY-kDnRfXNiPwfMlP3Fq-21" target="AY-kDnRfXNiPwfMlP3Fq-27">
          <mxGeometry relative="1" as="geometry" />
        </mxCell>
        <mxCell id="AY-kDnRfXNiPwfMlP3Fq-33" value="Y" style="edgeLabel;html=1;align=center;verticalAlign=middle;resizable=0;points=[];" vertex="1" connectable="0" parent="AY-kDnRfXNiPwfMlP3Fq-28">
          <mxGeometry x="-0.0539" y="-2" relative="1" as="geometry">
            <mxPoint x="4" y="-8" as="offset" />
          </mxGeometry>
        </mxCell>
        <mxCell id="AY-kDnRfXNiPwfMlP3Fq-21" value="归还书籍" style="rhombus;whiteSpace=wrap;html=1;fillColor=#dae8fc;strokeColor=#6c8ebf;" vertex="1" parent="1">
          <mxGeometry x="610" y="190" width="120" height="60" as="geometry" />
        </mxCell>
        <mxCell id="AY-kDnRfXNiPwfMlP3Fq-32" value="" style="edgeStyle=orthogonalEdgeStyle;rounded=0;orthogonalLoop=1;jettySize=auto;html=1;" edge="1" parent="1" source="AY-kDnRfXNiPwfMlP3Fq-22" target="AY-kDnRfXNiPwfMlP3Fq-31">
          <mxGeometry relative="1" as="geometry" />
        </mxCell>
        <mxCell id="AY-kDnRfXNiPwfMlP3Fq-34" value="Y" style="edgeLabel;html=1;align=center;verticalAlign=middle;resizable=0;points=[];" vertex="1" connectable="0" parent="AY-kDnRfXNiPwfMlP3Fq-32">
          <mxGeometry x="-0.1067" y="-2" relative="1" as="geometry">
            <mxPoint y="-8" as="offset" />
          </mxGeometry>
        </mxCell>
        <mxCell id="AY-kDnRfXNiPwfMlP3Fq-40" value="" style="edgeStyle=orthogonalEdgeStyle;rounded=0;orthogonalLoop=1;jettySize=auto;html=1;" edge="1" parent="1" source="AY-kDnRfXNiPwfMlP3Fq-22" target="AY-kDnRfXNiPwfMlP3Fq-39">
          <mxGeometry relative="1" as="geometry">
            <Array as="points">
              <mxPoint x="670" y="360" />
              <mxPoint x="670" y="360" />
            </Array>
          </mxGeometry>
        </mxCell>
        <mxCell id="AY-kDnRfXNiPwfMlP3Fq-41" value="N" style="edgeLabel;html=1;align=center;verticalAlign=middle;resizable=0;points=[];" vertex="1" connectable="0" parent="AY-kDnRfXNiPwfMlP3Fq-40">
          <mxGeometry relative="1" as="geometry">
            <mxPoint x="10" as="offset" />
          </mxGeometry>
        </mxCell>
        <mxCell id="AY-kDnRfXNiPwfMlP3Fq-22" value="添加借阅信息" style="rhombus;whiteSpace=wrap;html=1;fillColor=#dae8fc;strokeColor=#6c8ebf;" vertex="1" parent="1">
          <mxGeometry x="610" y="280" width="120" height="60" as="geometry" />
        </mxCell>
        <mxCell id="AY-kDnRfXNiPwfMlP3Fq-29" style="edgeStyle=orthogonalEdgeStyle;rounded=0;orthogonalLoop=1;jettySize=auto;html=1;exitX=0;exitY=0.5;exitDx=0;exitDy=0;entryX=0.5;entryY=1;entryDx=0;entryDy=0;" edge="1" parent="1" source="AY-kDnRfXNiPwfMlP3Fq-27" target="AY-kDnRfXNiPwfMlP3Fq-14">
          <mxGeometry relative="1" as="geometry" />
        </mxCell>
        <mxCell id="AY-kDnRfXNiPwfMlP3Fq-27" value="点击归还按钮" style="rounded=0;whiteSpace=wrap;html=1;fillColor=#dae8fc;strokeColor=#6c8ebf;" vertex="1" parent="1">
          <mxGeometry x="354" y="200" width="120" height="40" as="geometry" />
        </mxCell>
        <mxCell id="AY-kDnRfXNiPwfMlP3Fq-36" value="" style="edgeStyle=orthogonalEdgeStyle;rounded=0;orthogonalLoop=1;jettySize=auto;html=1;" edge="1" parent="1" source="AY-kDnRfXNiPwfMlP3Fq-31" target="AY-kDnRfXNiPwfMlP3Fq-35">
          <mxGeometry relative="1" as="geometry" />
        </mxCell>
        <mxCell id="AY-kDnRfXNiPwfMlP3Fq-37" value="N" style="edgeLabel;html=1;align=center;verticalAlign=middle;resizable=0;points=[];" vertex="1" connectable="0" parent="AY-kDnRfXNiPwfMlP3Fq-36">
          <mxGeometry x="-0.1833" y="1" relative="1" as="geometry">
            <mxPoint y="-11" as="offset" />
          </mxGeometry>
        </mxCell>
        <mxCell id="AY-kDnRfXNiPwfMlP3Fq-31" value="之前是否有续借过" style="rhombus;whiteSpace=wrap;html=1;fillColor=#dae8fc;strokeColor=#6c8ebf;" vertex="1" parent="1">
          <mxGeometry x="430" y="280" width="130" height="60" as="geometry" />
        </mxCell>
        <mxCell id="AY-kDnRfXNiPwfMlP3Fq-38" style="edgeStyle=orthogonalEdgeStyle;rounded=0;orthogonalLoop=1;jettySize=auto;html=1;exitX=0;exitY=0.5;exitDx=0;exitDy=0;" edge="1" parent="1" source="AY-kDnRfXNiPwfMlP3Fq-35">
          <mxGeometry relative="1" as="geometry">
            <mxPoint x="210" y="160" as="targetPoint" />
          </mxGeometry>
        </mxCell>
        <mxCell id="AY-kDnRfXNiPwfMlP3Fq-35" value="修改归还时间，延迟一个月" style="rounded=0;whiteSpace=wrap;html=1;fillColor=#dae8fc;strokeColor=#6c8ebf;" vertex="1" parent="1">
          <mxGeometry x="240" y="285" width="150" height="50" as="geometry" />
        </mxCell>
        <mxCell id="AY-kDnRfXNiPwfMlP3Fq-39" value="结束" style="rounded=0;whiteSpace=wrap;html=1;fillColor=#dae8fc;strokeColor=#6c8ebf;" vertex="1" parent="1">
          <mxGeometry x="610" y="370" width="120" height="40" as="geometry" />
        </mxCell>
      </root>
    </mxGraphModel>
  </diagram>
</mxfile>
